<svg xmlns="http://www.w3.org/2000/svg" width="48" height="48" viewBox="0 0 48 48" fill="none">
  <defs>
    <linearGradient id="g" x1="0%" y1="0%" x2="100%" y2="100%">
      <stop offset="0%" stop-color="#8B5CF6"/>
      <stop offset="100%" stop-color="#EC4899"/>
    </linearGradient>
  </defs>
  <path d="M24 6C15.163 6 8 13.163 8 22c0 4.5 1.86 8.56 4.86 11.46L11 40h5.5l1.5-4h12l1.5 4H37l-1.86-6.54C38.14 30.56 40 26.5 40 22c0-8.837-7.163-16-16-16z" fill="url(#g)"/>
  <circle cx="19" cy="20" r="2.5" fill="white"/>
  <circle cx="29" cy="20" r="2.5" fill="white"/>
  <path d="M19 27c0 0 2.5 3 5 3s5-3 5-3" stroke="white" stroke-width="2" fill="none" stroke-linecap="round"/>
</svg>
