<svg xmlns="http://www.w3.org/2000/svg" width="403" height="403" fill="none" viewBox="0 0 400 403"><path fill="#644DFF" fill-rule="evenodd" d="M366.784 65.197c-64.738-77.211-179.758-87.282-256.919-22.503-52.435 44.01-73.871 111.26-61.927 174.064l.429 2.244.24-.1c52.534-19.741 70.291-58.985 101.02-109.496 41.118-67.55 121.75-64.16 158.9-12.104 58.387 81.838 45.515 197.695 11.127 242.034 8.575-4.976 16.74-10.43 24.657-17.08 77.162-64.768 87.222-179.857 22.473-257.059" clip-rule="evenodd"></path><path fill="#fff" d="M308.885 96.264c-37.14-52.056-117.781-55.446-158.9 12.104-30.739 50.511-48.486 89.764-101.02 109.496-.06.08-.11.16-.17.229 6.152 28.925 24.567 59.275 62.186 72.057 43.162 14.657 64.23-7.268 93.374-1.067 26.062 5.544 35.455 21.856 49.692 37.729 15.883 17.707 43.342 22.064 62.615 13.42a182 182 0 0 0 3.35-1.914c34.388-44.329 47.27-160.206-11.117-242.054z"></path><path fill="#644DFF" d="M269.652 153.974c6.291 20.829 6.521 39.982-6.571 42.843-12.642 2.762-19.093-12.453-25.375-33.261-6.291-20.828-9.472-36.303 4.088-40.46 13.092-4.028 21.567 10.07 27.858 30.878M311.149 143.745c6.471 19.223 6.311 37.618-3.619 39.612-10.459 2.094-15.853-12.403-22.324-31.626s-11.705-33.092-2.064-37.828c10.659-5.235 21.536 10.618 28.007 29.842M203.059 195.451c.548-7.457 13.081-10.857 14.317-3.958 4.507 25.046 34.339 43.412 54.21 28.356 5.723-4.347 12.373 7.678 9.043 11.476-26.352 24.887-80.133-.817-77.56-35.874z"></path><path fill="#FF4CD2" d="m319.654 339.336-.01.01a182 182 0 0 1-3.35 1.914c-6.63 2.971-14.218 4.407-21.975 4.297-14.816-.219-30.221-6.092-40.65-17.717-14.238-15.873-23.63-32.185-49.693-37.729-3.639-.777-7.159-1.106-10.608-1.126-17.249-.11-32.813 7.607-54.06 7.348-8.505-.1-17.917-1.476-28.715-5.145a99 99 0 0 1-13.201-5.573 88 88 0 0 1-2.892-1.546c-.05-.03-.11-.06-.16-.089a80 80 0 0 1-2.701-1.576c-.08-.05-.16-.1-.24-.139a74 74 0 0 1-2.552-1.626c-.09-.059-.19-.119-.28-.179a70 70 0 0 1-2.442-1.685c-.09-.07-.19-.13-.29-.199a86 86 0 0 1-2.342-1.745c-.09-.07-.19-.14-.28-.21a106 106 0 0 1-2.263-1.814c-.08-.07-.17-.14-.259-.21a99 99 0 0 1-2.183-1.884c-.08-.07-.16-.14-.23-.21a100 100 0 0 1-2.113-1.964c-.06-.06-.13-.119-.19-.179a134 134 0 0 1-2.064-2.054l-.15-.15a102 102 0 0 1-2.003-2.143c-.04-.04-.07-.08-.11-.12a103 103 0 0 1-1.954-2.233c-.02-.03-.04-.05-.06-.08a86 86 0 0 1-1.904-2.333s-.01-.02-.02-.02c-10.629-13.5-16.89-29.244-19.782-44.449-10.19-53.581 3.939-110.393 40.87-153.246C35.614 95.388 0 153.605 0 220.148c0 100.772 81.648 182.47 182.37 182.47 55.636 0 105.448-24.936 138.899-64.239-.538.319-1.077.648-1.625.957z"></path></svg>