<svg xmlns="http://www.w3.org/2000/svg" width="48" height="48" viewBox="0 0 48 48" fill="none">
  <defs>
    <linearGradient id="g1" x1="0%" y1="0%" x2="100%" y2="100%">
      <stop offset="0%" stop-color="#3776AB"/>
      <stop offset="100%" stop-color="#FFD43B"/>
    </linearGradient>
    <linearGradient id="g2" x1="0%" y1="0%" x2="100%" y2="100%">
      <stop offset="0%" stop-color="#3776AB"/>
      <stop offset="50%" stop-color="#3776AB"/>
      <stop offset="50%" stop-color="#FFD43B"/>
      <stop offset="100%" stop-color="#FFD43B"/>
    </linearGradient>
  </defs>
  <path d="M23.5 10c-5 0-4.7 2.17-4.7 2.17l.006 2.25H24v.68h-6.6S13 14.57 13 19.73s3.4.5 3.4.5h2v-2.42s-.1-3.4 3.35-3.4h5.77s3.24.05 3.24-3.13V14.6S31.4 10 23.5 10zm-2.7 2.66a1.08 1.08 0 110 2.16 1.08 1.08 0 010-2.16z" fill="#3776AB"/>
  <path d="M24.5 38c5 0 4.7-2.17 4.7-2.17l-.006-2.25H24v-.68h6.6s4.4.53 4.4-4.63-3.4-.5-3.4-.5h-2v2.42s.1 3.4-3.35 3.4h-5.77s-3.24-.05-3.24 3.13v2.68S16.6 38 24.5 38zm2.7-2.66a1.08 1.08 0 110-2.16 1.08 1.08 0 010 2.16z" fill="#FFD43B"/>
</svg>
